<svg xmlns="http://www.w3.org/2000/svg" version="1.1" xmlns:xlink="http://www.w3.org/1999/xlink" xmlns:svgjs="http://svgjs.dev/svgjs" width="1500" height="935" viewBox="0 0 1500 935"><g transform="matrix(1,0,0,1,-0.9090909090909918,0.3785425101214628)"><svg viewBox="0 0 396 247" data-background-color="#ffffff" preserveAspectRatio="xMidYMid meet" height="935" width="1500" xmlns="http://www.w3.org/2000/svg" xmlns:xlink="http://www.w3.org/1999/xlink"><g id="tight-bounds" transform="matrix(1,0,0,1,0.2400000000000091,-0.09999999999999432)"><svg viewBox="0 0 395.52 247.2" height="247.2" width="395.52"><g><svg></svg></g><g><svg viewBox="0 0 395.52 247.2" height="247.2" width="395.52"><mask id="08e036b6-9893-4097-b1e1-8f6fc3838fe2"><rect width="640" height="400" fill="white"></rect><g transform="matrix(1,0,0,1,68.447725249099,41.97735849056603)"><svg viewBox="0 0 258.624549501802 163.24528301886792" height="163.24528301886792" width="258.624549501802"><g><svg viewBox="0 0 258.624549501802 163.24528301886792" height="163.24528301886792" width="258.624549501802"><g><svg viewBox="0 0 258.624549501802 163.24528301886792" height="163.24528301886792" width="258.624549501802"><g><svg viewBox="0 0 258.624549501802 163.24528301886792" height="163.24528301886792" width="258.624549501802"><g id="SvgjsG1002"><svg viewBox="0 0 258.624549501802 163.24528301886792" height="163.24528301886792" width="258.624549501802" id="SvgjsSvg1001"><g><svg viewBox="0 0 258.624549501802 163.24528301886792" height="163.24528301886792" width="258.624549501802"><g transform="matrix(1,0,0,1,0,0)"><svg width="258.624549501802" viewBox="-0.75 -41.5 71.5 45.5" height="163.24528301886792" data-palette-color="#f57500"><path d="M6.4-34.1L3.25-34.1 3.25-37.5 10.95-37.5 21.55-15.65 32.05-37.5 39.75-37.5 39.75-34.1 36.6-34.1 36.6-3.4 39.75-3.4 39.75 0 29.25 0 29.25-3.4 32.5-3.4 32.5-29.15 23.05-9.7 19.9-9.7 10.5-29.3 10.5-3.4 13.75-3.4 13.75 0 3.25 0 3.25-3.4 6.4-3.4 6.4-34.1ZM45.5 0L45.5-9.05Q45.5-13.15 48.2-14.85L48.2-14.85 62.6-23.8 62.6-34.1 49.45-34.1 49.45-28 45.55-28 45.55-37.5 60.1-37.5Q63.8-37.5 65.3-36.2L65.3-36.2Q66.7-35 66.7-31.7L66.7-31.7 66.7-25.85Q66.7-22.4 64.25-20.9L64.25-20.9 49.4-11.5 49.4-3.4 62.55-3.4 62.55-8 66.75-8 66.75 0 45.5 0Z" opacity="1" transform="matrix(1,0,0,1,0,0)" fill="black" class="wordmark-text-0" id="SvgjsPath1000" stroke-width="7" stroke="black" stroke-linejoin="round"></path></svg></g></svg></g></svg></g></svg></g><g></g></svg></g></svg></g></svg></g></mask><g transform="matrix(1,0,0,1,68.447725249099,41.97735849056603)"><svg viewBox="0 0 258.624549501802 163.24528301886792" height="163.24528301886792" width="258.624549501802"><g><svg viewBox="0 0 258.624549501802 163.24528301886792" height="163.24528301886792" width="258.624549501802"><g><svg viewBox="0 0 258.624549501802 163.24528301886792" height="163.24528301886792" width="258.624549501802"><g><svg viewBox="0 0 258.624549501802 163.24528301886792" height="163.24528301886792" width="258.624549501802"><g id="textblocktransform"><svg viewBox="0 0 258.624549501802 163.24528301886792" height="163.24528301886792" width="258.624549501802" id="textblock"><g><svg viewBox="0 0 258.624549501802 163.24528301886792" height="163.24528301886792" width="258.624549501802"><g transform="matrix(1,0,0,1,0,0)"><svg width="258.624549501802" viewBox="-0.75 -41.5 71.5 45.5" height="163.24528301886792" data-palette-color="#f57500"><path d="M6.4-34.1L3.25-34.1 3.25-37.5 10.95-37.5 21.55-15.65 32.05-37.5 39.75-37.5 39.75-34.1 36.6-34.1 36.6-3.4 39.75-3.4 39.75 0 29.25 0 29.25-3.4 32.5-3.4 32.5-29.15 23.05-9.7 19.9-9.7 10.5-29.3 10.5-3.4 13.75-3.4 13.75 0 3.25 0 3.25-3.4 6.4-3.4 6.4-34.1ZM45.5 0L45.5-9.05Q45.5-13.15 48.2-14.85L48.2-14.85 62.6-23.8 62.6-34.1 49.45-34.1 49.45-28 45.55-28 45.55-37.5 60.1-37.5Q63.8-37.5 65.3-36.2L65.3-36.2Q66.7-35 66.7-31.7L66.7-31.7 66.7-25.85Q66.7-22.4 64.25-20.9L64.25-20.9 49.4-11.5 49.4-3.4 62.55-3.4 62.55-8 66.75-8 66.75 0 45.5 0Z" opacity="1" transform="matrix(1,0,0,1,0,0)" fill="#f57500" class="wordmark-text-0" data-fill-palette-color="primary" id="text-0"></path></svg></g></svg></g></svg></g></svg></g><g></g></svg></g></svg></g></svg></g><g mask="url(#08e036b6-9893-4097-b1e1-8f6fc3838fe2)"><g transform="matrix(4.0869313008954515, 0, 0, 4.0869313008954515, 1.587297557018303, 1.0000000000000142)"><svg xmlns="http://www.w3.org/2000/svg" xmlns:xlink="http://www.w3.org/1999/xlink" version="1.1" x="0" y="0" viewBox="0 18.00388507967424 96 59.99611492032576" enable-background="new 0 0 96 96" xml:space="preserve" height="59.99611492032576" width="96" class="icon-none" data-fill-palette-color="accent" id="none"><path d="M28.416 76.572c-1.024 0-2.048-0.393-2.832-1.172L1.172 50.844C0.42 50.092 0 49.068 0 48c0-1.068 0.42-2.088 1.176-2.848l24.412-24.548c1.56-1.568 4.092-1.576 5.656 0.004 1.56 1.58 1.56 4.12-0.004 5.696L9.664 48l21.58 21.704c1.56 1.571 1.56 4.116 0 5.688C30.464 76.18 29.432 76.572 28.416 76.572L28.416 76.572z" fill="#f57500" data-fill-palette-color="accent"></path><path d="M67.588 76.572c-1.023 0-2.052-0.393-2.828-1.18-1.568-1.572-1.568-4.117 0-5.697L86.344 48 64.76 26.304c-1.568-1.58-1.568-4.12 0-5.696 1.568-1.58 4.088-1.576 5.656-0.008l24.412 24.552C95.58 45.9 96 46.928 96 48c0 1.068-0.42 2.088-1.172 2.844L70.416 75.393C69.641 76.18 68.611 76.572 67.588 76.572L67.588 76.572z" fill="#f57500" data-fill-palette-color="accent"></path><path d="M38.348 78c-0.476 0-0.964-0.084-1.436-0.264-2.06-0.805-3.092-3.133-2.296-5.213l19.868-51.947c0.795-2.076 3.107-3.096 5.168-2.304 2.06 0.796 3.088 3.124 2.296 5.204L42.072 75.424C41.476 77.016 39.952 78 38.348 78z" fill="#f57500" data-fill-palette-color="accent"></path></svg></g></g></svg></g><defs></defs></svg><rect width="395.52" height="247.2" fill="none" stroke="none" visibility="hidden"></rect></g></svg></g></svg>